<?xml version="1.0" encoding="UTF-8"?>
<svg id="Layer_2" data-name="Layer 2" xmlns="http://www.w3.org/2000/svg" viewBox="0 0 269.65 239.84">
  <defs>
    <style>
      .cls-1 {
        fill: #ccd7f9;
      }

      .cls-1, .cls-2 {
        stroke-width: 0px;
      }

      .cls-2 {
        fill: #6877f3;
      }
    </style>
  </defs>
  <g id="Layer_1-2" data-name="Layer 1">
    <g>
      <path class="cls-1" d="M64.24,131.66c-3.17,9.75,1.54,15.12,11.21,18.42-7.02,3.96-12.39,7.23-17.98,10.05-3.47,1.74-5.11,3.92-5.51,7.96-1.13,11.15-9,19.97-19.21,22.38-10.8,2.54-21.85-1.6-27.72-10.38-6.74-10.08-6.71-21.37.17-30.79,1.07-1.47,2.21-3.24,3.74-3.95,5.91-2.74,6.42-7.5,6.21-13.21-.36-9.82.06-19.66-.24-29.48-.06-1.87-1.46-4.32-3-5.42-10.38-7.36-14.47-19.59-10.11-31.24,4.41-11.78,15.27-18.51,27.47-17.01,12.19,1.49,21.04,10.77,22.99,23.52.34,2.25,1.94,5.04,3.81,6.2,9.77,6.02,19.79,11.64,29.78,17.3,5.68,3.22,8,1.86,8.02-4.56.03-12-.13-24,.1-35.99.07-3.54-.98-5.63-3.93-7.72-11.79-8.35-14.65-23.81-7-35.89C90.13.57,105.17-3.28,117.38,3.02c17.23,8.9,18.56,33.17,2.25,44.95-2.89,2.09-3.69,4.14-3.66,7.38.13,11.99.15,23.99-.01,35.99-.04,3.2.68,5.62,3.78,6.78,9.33,3.46,13.38,9.75,11.67,19.87-.36,2.12,1.57,4.63,2.77,7.82-2.69,5.1-5.93,11.23-9.34,17.69-.8-.26-1.85-.6-2.9-.93-3.46-1.09-5.79.2-5.83,3.77-.17,13.66-.11,27.32,0,40.99,0,1.16.67,3.03,1.51,3.36,5.09,2.01,6.08,6.71,7.75,11.01.72,1.86,1.48,3.71,2.3,5.53,6.66,14.75-2.5,30.63-18.64,32.31-13.07,1.36-24.4-5.11-28.51-16.29-4.45-12.09-.56-23.51,10.41-31.54,1.45-1.06,2.77-3.38,2.8-5.14.23-12.99.28-25.99-.04-38.98-.05-1.97-1.85-4.95-3.57-5.65-9.27-3.76-13.21-10.03-11.5-20.05.27-1.56-1.2-4.27-2.65-5.14-10.68-6.46-21.52-12.65-32.38-18.8-3.4-1.93-5.88-.48-5.92,3.54-.13,12.33-.12,24.66,0,36.99.04,4.18,2.49,5.36,6.44,3.22,6.24-3.38,12.4-6.91,18.59-10.38.51.12,1.02.24,1.54.36Z"/>
      <path class="cls-2" d="M269.62,172.55c1.12,35.99-29.98,68.45-69.62,67.25-35.36-1.06-64.97-30.66-64.96-67.06,0-38.09,29.76-67.8,67.84-67.76,37.5.04,66.74,29.64,66.74,67.57ZM238.26,166.44c-.17-.56-.35-1.11-.52-1.67h-29.01c1.59-9.78,3.04-18.66,4.49-27.55-.41-.22-.82-.43-1.23-.65-15.25,14.09-30.49,28.18-45.74,42.27.2.45.4.9.61,1.35h29.27c-1.52,9.49-2.92,18.23-4.32,26.98.45.28.89.56,1.34.83,15.04-13.85,30.08-27.7,45.12-41.56Z"/>
      <path class="cls-1" d="M145.52,109.46c2.28-10.15-.2-16.6-10.99-19.18,6.53-3.86,11.54-6.93,16.66-9.8,3.73-2.08,6.1-4.23,6.79-9.25,2.14-15.69,16.24-25.24,31.12-22.02,14.91,3.23,23.77,18.22,19.73,33.33-1.28,4.79-3.43,7.45-9.24,7.51-15.83.14-30.3,5.41-43.74,13.63-2.8,1.71-5.73,3.21-10.33,5.77Z"/>
    </g>
  </g>
</svg>