<?xml version="1.0" encoding="UTF-8"?>
<svg id="Layer_2" data-name="Layer 2" xmlns="http://www.w3.org/2000/svg" viewBox="0 0 209.88 179.82">
  <defs>
    <style>
      .cls-1 {
        fill: #ccd7f9;
      }

      .cls-1, .cls-2 {
        stroke-width: 0px;
      }

      .cls-2 {
        fill: #6877f3;
      }
    </style>
  </defs>
  <g id="Layer_1-2" data-name="Layer 1">
    <g>
      <path class="cls-2" d="M18.62,104.89c-3.58-.02-7.42-.47-10.67-1.83-5.95-2.5-8.95-9.78-7.59-16.43,1.22-6,6.73-10.93,12.92-11.54.83-.08,1.66-.06,2.5-.06,59.46,0,58.93-.03,118.39.02,12.09,0,19.44,11.27,14.2,21.7-3.14,6.24-8.69,8.27-15.35,8.25-16.82-.06-85.58.04-114.39-.1Z"/>
      <path class="cls-1" d="M104.85,29.82c-29.82,0-59.63.02-89.45-.02-7.49,0-13.18-4.28-14.9-10.94C-1.19,12.35,1.5,5.2,7.41,2.12,9.94.8,13.1.1,15.98.09,75.45-.02,134.92-.02,194.38.04c9.41,0,15.58,6.23,15.5,15.19-.07,8.56-6.44,14.58-15.58,14.58-29.82.03-59.63.01-89.45,0Z"/>
      <path class="cls-1" d="M105,150.3c29.98,0,59.96-.01,89.94,0,8.76,0,14.87,6.02,14.94,14.57.07,8.67-6.26,14.93-15.18,14.93-59.8.01-119.59.01-179.39,0-7.16,0-12.91-4.15-14.68-10.46-1.92-6.81.69-13.94,6.84-17.17,2.37-1.25,5.37-1.79,8.09-1.8,29.81-.12,59.63-.08,89.44-.08Z"/>
    </g>
  </g>
</svg>