<?xml version="1.0" encoding="UTF-8"?>
<svg id="Layer_2" data-name="Layer 2" xmlns="http://www.w3.org/2000/svg" viewBox="0 0 134.59 134.58">
  <defs>
    <style>
      .cls-1 {
        fill: #6578ef;
        stroke-width: 0px;
      }
    </style>
  </defs>
  <g id="Layer_1-2" data-name="Layer 1">
    <path class="cls-1" d="M130.66,72.88l-27.1,9.79c-9.72,3.51-17.38,11.17-20.89,20.89l-9.79,27.1c-.95,2.61-3.27,3.92-5.59,3.92s-4.64-1.31-5.59-3.92l-9.79-27.1c-3.51-9.72-11.17-17.38-20.89-20.89l-27.1-9.79c-5.23-1.89-5.23-9.29,0-11.18l27.1-9.79c9.72-3.51,17.38-11.17,20.89-20.89L61.7,3.92c.95-2.61,3.27-3.92,5.59-3.92s4.64,1.31,5.59,3.92l9.79,27.1c3.51,9.72,11.17,17.38,20.89,20.89l27.1,9.79c5.23,1.89,5.23,9.29,0,11.18Z"/>
  </g>
</svg>