<?xml version="1.0" encoding="UTF-8"?>
<svg id="Layer_2" data-name="Layer 2" xmlns="http://www.w3.org/2000/svg" viewBox="0 0 129.38 125">
  <defs>
    <style>
      .cls-1 {
        fill: #ced7fb;
      }

      .cls-1, .cls-2 {
        stroke-width: 0px;
      }

      .cls-2 {
        fill: #6b76f7;
      }
    </style>
  </defs>
  <g id="Layer_2-2" data-name="Layer 2">
    <g>
      <path class="cls-1" d="M89.4,68.49c0-3.18-2.56-5.76-5.74-5.77-1.28,0-2.46,0-3.14,0-1.26,0-2.53,0-3.79.01-1.3.01-2.6.02-3.89.02h-.88c-6.21-.02-11.94-2.35-16.16-6.56-3.26-3.27-5.42-7.78-6.23-13.39-.43-2.97-2.97-5.18-5.97-5.18-7.4,0-20.19.02-26.92.04C7.39,37.69.1,45,.05,54.28c-.02,4.14-.04,8.28-.04,12.42-.01,7.21,0,14.42.04,21.62.05,9.43,7.18,16.42,16.67,16.48.63,0,1.26.01,1.93.01,1.15,0,2.37-.01,3.86-.01,0,4.86.02,9.08-.01,13.29-.01,2.74.27,5.31,3.29,6.47.78.31,1.5.44,2.19.44,1.97,0,3.59-1.12,5.12-2.68,5.08-5.15,10.13-10.34,15.4-15.27,1.12-1.05,2.84-1.85,4.42-2.08.25-.04.49-.07.73-.08,2.86-.11,5.73-.14,8.59-.14,3.27,0,6.53.04,9.78.04h1.08c9.34-.03,16.24-6.89,16.28-16.29l.03-20.02Z"/>
      <path class="cls-2" d="M129.34,39.81c-.04,7.4-5.64,12.89-13.09,12.94-.5,0-.99,0-1.52,0-.9,0-1.86,0-3.03,0,0,3.81-.02,7.13,0,10.44.01,2.15-.21,4.17-2.58,5.08-.61.24-1.18.35-1.72.35-1.55,0-2.82-.88-4.03-2.1-3.98-4.04-7.95-8.12-12.09-11.99-.52-.49-1.21-.91-1.95-1.2-.5-.21-1.02-.35-1.52-.43-.19-.03-.39-.05-.58-.06-2.24-.08-4.5-.11-6.74-.11-2.56,0-5.12.03-7.68.03h-.85c-7.33-.02-12.75-5.41-12.78-12.79,0-.78,0-1.56,0-2.33-.04-8.23-.03-16.45,0-24.68.03-7.32,5.48-12.87,12.75-12.9,7.29-.03,14.58-.04,21.87-.04s14.97.01,22.46.04c7.29.02,13.01,5.77,13.06,13.05.02,3.25.03,6.5.03,9.75.01,5.66,0,11.32-.03,16.97Z"/>
    </g>
  </g>
</svg>