<?xml version="1.0" encoding="UTF-8"?>
<svg id="Layer_2" data-name="Layer 2" xmlns="http://www.w3.org/2000/svg" viewBox="0 0 100 110.09">
  <defs>
    <style>
      .cls-1 {
        fill: #ced7fb;
      }

      .cls-1, .cls-2 {
        stroke-width: 0px;
      }

      .cls-2 {
        fill: #6b76f7;
      }
    </style>
  </defs>
  <g id="Layer_1-2" data-name="Layer 1">
    <g>
      <rect class="cls-1" width="100" height="110.09" rx="13.17" ry="13.17"/>
      <g>
        <path class="cls-2" d="M50.92,70.15c8.62,0,17.25-.03,25.87.01,3.44.02,5.71,1.69,6.61,4.68.84,2.78-.09,5.83-2.56,7.28-1.2.7-2.73,1.14-4.12,1.15-17.32.08-34.64.07-51.96.03-4.03,0-6.74-2.71-6.76-6.5-.03-3.9,2.71-6.63,6.84-6.65,8.7-.04,17.39-.01,26.09-.01Z"/>
        <path class="cls-2" d="M44.09,37.2c-6.35,0-12.71.01-19.06,0-4.28,0-7.02-2.51-7.04-6.37-.02-4.09,2.57-6.66,6.98-6.68,12.85-.05,25.7-.05,38.56,0,4.36.02,7.01,2.68,6.97,6.72-.04,3.79-2.88,6.32-7.12,6.33-6.43.01-12.85,0-19.28,0Z"/>
        <path class="cls-2" d="M37.52,60.13c-4.39,0-8.77.03-13.16,0-3.75-.03-6.23-2.44-6.36-6.08-.14-3.78,2.19-6.71,5.92-6.77,9.14-.14,18.28-.15,27.41.01,3.87.07,6.02,2.91,5.87,6.97-.13,3.48-2.63,5.84-6.3,5.87-4.46.03-8.92,0-13.38,0Z"/>
      </g>
    </g>
  </g>
</svg>