<?xml version="1.0" encoding="UTF-8"?>
<svg id="Layer_2" data-name="Layer 2" xmlns="http://www.w3.org/2000/svg" viewBox="0 0 92.7 93.22">
  <defs>
    <style>
      .cls-1 {
        fill: #ced7fb;
      }

      .cls-1, .cls-2 {
        stroke-width: 0px;
      }

      .cls-2 {
        fill: #6b76f7;
      }
    </style>
  </defs>
  <g id="Layer_1-2" data-name="Layer 1">
    <g>
      <path class="cls-1" d="M84.58,49.3v31.85c0,6.66-5.4,12.06-12.06,12.06h-14.52v-23.63c0-4.73-3.84-8.58-8.58-8.58h-6.13c-4.74,0-8.58,3.84-8.58,8.58v23.63h-14.53c-6.66,0-12.06-5.4-12.06-12.06v-31.85c.74-.27,1.43-.69,2.04-1.25L46.35,14.31l36.18,33.74c.61.57,1.31.99,2.05,1.25Z"/>
      <path class="cls-2" d="M57.99,69.58v23.63h-23.29v-23.63c0-4.73,3.84-8.58,8.58-8.58h6.13c4.74,0,8.58,3.84,8.58,8.58Z"/>
      <path class="cls-2" d="M91.07,47.75c-1.71,1.83-4.28,2.36-6.5,1.55-.74-.27-1.44-.68-2.05-1.25L46.35,14.31,10.16,48.05c-.61.57-1.3.99-2.04,1.25-2.21.81-4.79.28-6.5-1.55-1.09-1.16-1.62-2.64-1.62-4.12,0-1.62.64-3.23,1.92-4.42l6.2-5.78,24.11-22.49,5.25-4.9,4.74-4.42c2.32-2.17,5.92-2.17,8.24,0l4.74,4.42,5.25,4.9,24.12,22.49,6.2,5.78c2.44,2.28,2.58,6.1.3,8.54Z"/>
    </g>
  </g>
</svg>