<?xml version="1.0" encoding="UTF-8"?>
<svg id="Layer_2" data-name="Layer 2" xmlns="http://www.w3.org/2000/svg" viewBox="0 0 92.63 95.23">
  <defs>
    <style>
      .cls-1 {
        fill: #ced7fb;
      }

      .cls-1, .cls-2 {
        stroke-width: 0px;
      }

      .cls-2 {
        fill: #6b76f7;
      }
    </style>
  </defs>
  <g id="Layer_1-2" data-name="Layer 1">
    <g>
      <path class="cls-1" d="M18.68,74.38c15.82-8.29,40.56-.54,57.52-14.93,2.52-2.14,6.38-.42,6.38,2.89v26.68c0,3.44-2.79,6.22-6.22,6.22H16.27c-3.44,0-6.22-2.79-6.22-6.22h0c0-6.09,3.24-11.81,8.63-14.63Z"/>
      <path class="cls-2" d="M61.77,56.06h-6.39v39.17h-18.13v-39.17h-6.39c-3.1,0-4.89-3.53-3.05-6.03l15.46-21.01c1.51-2.06,4.59-2.06,6.1,0l15.45,21.01c1.84,2.5.05,6.03-3.05,6.03Z"/>
      <path class="cls-1" d="M91,47.72c-1.71,1.83-4.28,2.36-6.49,1.55-.74-.27-1.43-.68-2.04-1.25L46.31,14.3,10.16,48.01c-.61.57-1.3.98-2.04,1.25-2.21.81-4.79.28-6.5-1.55-1.09-1.16-1.62-2.64-1.62-4.11,0-1.62.64-3.23,1.92-4.42l6.2-5.78,24.09-22.47,5.25-4.89,4.74-4.42c2.32-2.16,5.92-2.16,8.24,0l4.73,4.42,5.25,4.89,24.1,22.47,6.19,5.77c2.44,2.28,2.57,6.1.3,8.54Z"/>
    </g>
  </g>
</svg>