<?xml version="1.0" encoding="UTF-8"?>
<svg id="Layer_2" data-name="Layer 2" xmlns="http://www.w3.org/2000/svg" viewBox="0 0 269.72 269.86">
  <defs>
    <style>
      .cls-1 {
        fill: #ccd7f9;
      }

      .cls-1, .cls-2 {
        stroke-width: 0px;
      }

      .cls-2 {
        fill: #6877f3;
      }
    </style>
  </defs>
  <g id="Layer_1-2" data-name="Layer 1">
    <g>
      <path class="cls-1" d="M77.15,179.78c-10,0-20-.08-29.99.05-3.01.04-4.47-.99-6.15-3.69-5.52-8.85-10.74-18.16-17.73-25.78C-22.07,100.9,2.16,19.01,67.23,2.85c51.79-12.86,101.62,18.99,111.39,71.45,2.08,11.19,1.75,22.51-.47,33.76-.62,3.12-1.91,4.02-4.96,4.02-6.98,0-14.05-.22-20.93.73-23.72,3.27-39.59,21.6-39.97,45.56-.09,5.5-.24,11.01.05,16.49.21,4.04-1.33,5.1-5.2,5-9.99-.24-19.99-.08-29.99-.08ZM30.04,84.06c-.02,7.69,4.13,12.9,10.61,13.29,6.14.37,10.38-4.42,11.76-11.71,1.13-5.96,2.52-12.19,5.4-17.42,6.06-11.03,16.63-15.05,28.74-16.11,6.69-.59,11.28-5.73,11.05-11.36-.25-6.14-5.62-10.66-12.75-10.73-28.51-.3-54.71,25.54-54.8,54.05Z"/>
      <path class="cls-2" d="M202.85,134.86c14.33,0,28.66-.04,43,0,14.87.04,23.87,9.14,23.87,24,0,19.49.01,38.99,0,58.48-.01,13.36-8.89,22.21-22.24,22.23-2.5,0-5.07.37-7.49-.07-8.39-1.51-13.63,2.18-17.86,9.15-3.61,5.95-8.18,11.33-12.41,16.9-4.36,5.72-10.03,5.74-14.42-.03-5.64-7.42-10.95-15.11-16.82-22.35-1.51-1.86-4.51-3.16-6.98-3.45-4.6-.54-9.31-.15-13.98-.16-12.99-.02-22.38-9.28-22.43-22.35-.08-19.83-.07-39.65,0-59.48.05-12.96,9.73-22.73,22.77-22.86,15-.15,30-.03,45-.04Z"/>
      <path class="cls-1" d="M112.26,202.52c0,4.24-.48,7.95.1,11.49,1.28,7.8,2.69,15.63,4.89,23.2.97,3.34.7,4.74-2.33,6.13-11.54,5.31-23.65,4.68-35.8,3.61-15.71-1.38-26.29-9.87-31.67-24.35-1.91-5.15-1.78-11.06-2.49-16.63-.33-2.59,1.05-3.48,3.55-3.48,20.98.05,41.95.03,63.75.03Z"/>
    </g>
  </g>
</svg>