<?xml version="1.0" encoding="UTF-8"?>
<svg id="Layer_2" data-name="Layer 2" xmlns="http://www.w3.org/2000/svg" viewBox="0 0 269.72 179.87">
  <defs>
    <style>
      .cls-1 {
        fill: #ccd7f9;
      }

      .cls-1, .cls-2 {
        stroke-width: 0px;
      }

      .cls-2 {
        fill: #6877f3;
      }
    </style>
  </defs>
  <g id="Layer_1-2" data-name="Layer 1">
    <g>
      <path class="cls-1" d="M134.3,179.87c-34.65,0-69.3,0-103.95,0-17.36,0-30.33-12.92-30.34-30.23C0,110.15,0,70.67,0,31.19,0,13.02,12.41.37,30.61.16c11.49-.14,22.99-.03,34.48-.03,57.47,0,114.95.24,172.42-.13,19.89-.13,32.53,15.35,32.21,32.2-.76,39.13-.23,78.29-.25,117.44,0,17.52-12.74,30.23-30.22,30.23-34.98,0-69.97,0-104.95,0ZM134.79,119.95c-2.83,0-5.66,0-8.49,0-13.48,0-26.97-.03-40.45.01-8.71.03-11.01,2.34-11.03,10.87,0,2.33,0,4.66,0,6.99,0,10.42,2.09,12.53,12.56,12.53,31.63.02,63.26,0,94.89,0,1.66,0,3.34.01,4.98-.23,4.93-.71,7.35-3.37,7.54-8.33.12-3.16.03-6.32.03-9.49,0-10.49-1.88-12.35-12.59-12.36-15.81-.01-31.63,0-47.44,0ZM44.89,60.21c1,0,1.99,0,2.99,0,9.85-.04,12.01-2.19,12.06-12.02,0-.83,0-1.66,0-2.49,0-14.93-.82-15.76-15.75-15.76-13.23,0-14.72,1.51-14.72,14.95,0,13.91,1.42,15.33,15.42,15.33ZM74.82,44.84c0,1.66,0,3.33,0,4.99.04,7.64,2.56,10.25,10.09,10.36,3.33.05,6.66.05,9.99,0,7.16-.12,9.99-2.95,10.09-9.97.02-1.66,0-3.33,0-4.99,0-14.37-.91-15.29-15.21-15.29-14.2,0-14.97.77-14.97,14.9ZM149.95,45.32c0-14.42-.94-15.38-15.15-15.38-.17,0-.33,0-.5,0-13.5,0-14.67,1.19-14.67,14.87,0,14.42,1,15.41,15.66,15.41,13.48,0,14.65-1.19,14.66-14.89ZM164.81,45.16c0,1.33,0,2.66,0,3.99.02,8.58,2.38,10.98,10.89,11.06,1.33.01,2.66,0,3.99,0,14.27,0,15.14-.88,15.14-15.29,0-14.1-.88-14.98-14.89-14.98-14.35,0-15.13.79-15.13,15.22ZM209.7,44.77c0,1.83-.04,3.66,0,5.49.2,7.23,2.8,9.82,10.09,9.94,3.99.06,7.99.14,11.97-.09,4.93-.28,7.8-2.94,8.09-7.77.29-4.8.29-9.65.01-14.45-.28-4.94-3.04-7.52-8-7.83-3.31-.21-6.65-.11-9.97-.1-10.11,0-12.19,2.12-12.2,12.34,0,.83,0,1.66.01,2.49ZM44.54,105.02c1.66,0,3.32,0,4.99,0,7.66-.02,10.22-2.45,10.4-10.01.08-3.65.12-7.32-.04-10.97-.27-6.29-3.11-9.02-9.35-9.15-3.82-.08-7.65-.07-11.47,0-5.9.11-8.91,2.84-9.47,8.65-.2,2.14-.12,4.32-.13,6.48,0,13.82,1.18,15,15.06,15ZM89.55,105.02c1.66,0,3.32,0,4.99,0,7.81-.04,10.4-2.63,10.45-10.49.02-3.49.08-6.98-.02-10.47-.17-5.74-3.29-8.91-8.95-9.16-1.99-.09-3.99-.02-5.98-.02-14.4,0-15.22.82-15.22,15.19,0,14.36.59,14.96,14.74,14.96ZM134.44,105.02c2,0,3.99.02,5.99,0,6.62-.07,9.3-2.68,9.49-9.39.1-3.49.07-6.99.01-10.48-.13-7.6-2.73-10.19-10.24-10.26-1.5-.01-3,0-4.49,0-14.57,0-15.57,1-15.57,15.5,0,13.69.98,14.65,14.82,14.65ZM179.54,105.02c1.83,0,3.65.01,5.48,0,7.26-.07,9.73-2.58,9.8-10,.03-2.99.01-5.98,0-8.97-.02-8.74-2.45-11.14-11.29-11.18-1.16,0-2.32,0-3.49,0-14.37,0-15.24.86-15.24,15.16,0,14.28.7,14.99,14.74,14.99ZM224.41,105.02c2,0,3.99.03,5.99,0,6.63-.1,9.41-2.77,9.57-9.39.1-4.16.15-8.33-.06-12.48-.26-5.07-3.21-8.01-8.23-8.22-4.49-.19-8.99-.16-13.48-.01-5.38.18-8.17,2.99-8.43,8.46-.18,3.82-.12,7.65-.07,11.48.1,7.7,2.58,10.13,10.22,10.16,1.5,0,3,0,4.49,0Z"/>
      <path class="cls-2" d="M44.89,60.21c-13.99,0-15.42-1.42-15.42-15.33,0-13.44,1.49-14.95,14.72-14.95,14.94,0,15.76.82,15.75,15.76,0,.83,0,1.66,0,2.49-.06,9.84-2.21,11.99-12.06,12.02-1,0-1.99,0-2.99,0Z"/>
      <path class="cls-2" d="M74.82,44.84c0-14.14.77-14.91,14.97-14.9,14.3,0,15.21.92,15.21,15.29,0,1.66.02,3.33,0,4.99-.1,7.03-2.94,9.85-10.09,9.97-3.33.06-6.66.05-9.99,0-7.53-.11-10.05-2.72-10.09-10.36,0-1.66,0-3.33,0-4.99Z"/>
      <path class="cls-2" d="M149.95,45.32c0,13.7-1.18,14.89-14.66,14.89-14.66,0-15.66-.98-15.66-15.41,0-13.68,1.17-14.86,14.67-14.87.17,0,.33,0,.5,0,14.21,0,15.16.96,15.15,15.38Z"/>
      <path class="cls-2" d="M164.81,45.16c0-14.43.79-15.22,15.13-15.22,14.01,0,14.89.88,14.89,14.98,0,14.41-.87,15.3-15.14,15.29-1.33,0-2.66,0-3.99,0-8.51-.08-10.87-2.48-10.89-11.06,0-1.33,0-2.66,0-3.99Z"/>
      <path class="cls-2" d="M209.69,44.77c0-.83,0-1.66,0-2.49.02-10.22,2.09-12.33,12.2-12.34,3.32,0,6.66-.11,9.97.1,4.96.32,7.72,2.9,8,7.83.27,4.8.27,9.65-.01,14.45-.29,4.83-3.15,7.49-8.09,7.77-3.98.23-7.98.15-11.97.09-7.29-.11-9.89-2.7-10.09-9.94-.05-1.83,0-3.66-.01-5.49Z"/>
      <path class="cls-2" d="M44.54,105.02c-13.88,0-15.07-1.18-15.06-15,0-2.16-.08-4.33.13-6.48.56-5.81,3.57-8.54,9.47-8.65,3.82-.07,7.65-.07,11.47,0,6.24.12,9.08,2.86,9.35,9.15.16,3.65.12,7.31.04,10.97-.18,7.55-2.74,9.98-10.4,10.01-1.66,0-3.32,0-4.99,0Z"/>
      <path class="cls-2" d="M89.55,105.02c-14.14,0-14.74-.6-14.74-14.96,0-14.36.83-15.19,15.22-15.19,1.99,0,3.99-.06,5.98.02,5.65.25,8.77,3.42,8.95,9.16.1,3.49.04,6.98.02,10.47-.05,7.86-2.64,10.45-10.45,10.49-1.66,0-3.32,0-4.99,0Z"/>
      <path class="cls-2" d="M134.44,105.02c-13.84,0-14.81-.96-14.82-14.65,0-14.5,1-15.5,15.57-15.5,1.5,0,3-.01,4.49,0,7.51.07,10.11,2.66,10.24,10.26.06,3.49.09,6.99-.01,10.48-.19,6.71-2.87,9.33-9.49,9.39-2,.02-3.99,0-5.99,0Z"/>
      <path class="cls-2" d="M179.54,105.02c-14.04,0-14.74-.71-14.74-14.99,0-14.3.87-15.16,15.24-15.16,1.16,0,2.32,0,3.49,0,8.83.04,11.26,2.44,11.29,11.18,0,2.99.03,5.98,0,8.97-.07,7.42-2.54,9.93-9.8,10-1.83.02-3.65,0-5.48,0Z"/>
      <path class="cls-2" d="M224.41,105.02c-1.5,0-3,0-4.49,0-7.64-.03-10.12-2.46-10.22-10.16-.05-3.83-.11-7.66.07-11.48.26-5.47,3.05-8.28,8.43-8.46,4.49-.15,8.99-.18,13.48.01,5.01.21,7.96,3.16,8.23,8.22.22,4.15.16,8.32.06,12.48-.16,6.61-2.94,9.29-9.57,9.39-2,.03-3.99,0-5.99,0Z"/>
    </g>
  </g>
</svg>