<?xml version="1.0" encoding="UTF-8"?>
<svg id="Layer_2" data-name="Layer 2" xmlns="http://www.w3.org/2000/svg" viewBox="0 0 83.15 93.07">
  <defs>
    <style>
      .cls-1 {
        fill: #ced7fb;
      }

      .cls-1, .cls-2 {
        stroke-width: 0px;
      }

      .cls-2 {
        fill: #6b76f7;
      }
    </style>
  </defs>
  <g id="Layer_1-2" data-name="Layer 1">
    <g>
      <path class="cls-2" d="M83.15,61.32v.14c0,2.31-1.38,4.41-3.5,5.32l-26.49,11.44c-7.39,3.2-15.78,3.2-23.18,0l-26.49-11.44c-2.12-.92-3.5-3.01-3.5-5.32v-.14c0-2.2,1.31-4.19,3.32-5.06l28.27-12.21c6.37-2.75,13.59-2.75,19.96,0l28.27,12.21c2.02.87,3.32,2.86,3.32,5.06Z"/>
      <path class="cls-1" d="M83.15,74.1h0c0,2.2-1.31,4.19-3.32,5.06l-26.66,11.52c-7.39,3.2-15.78,3.2-23.18,0l-26.66-11.52c-2.02-.87-3.32-2.86-3.32-5.06h0c0-4.17,4.27-6.98,8.1-5.32l21.89,9.46c7.39,3.2,15.78,3.2,23.18,0l21.89-9.46c3.83-1.65,8.1,1.15,8.1,5.32Z"/>
      <path class="cls-1" d="M71.53,19.11c-4.13,9.77-16.29,16.69-25.2,9.81-.17-.13-.34-.26-.5-.4-.14-.17-.28-.33-.4-.5-6.88-8.92.04-21.07,9.81-25.2C60.86.43,66.26-.03,69.81,0c2.49.02,4.51,2.04,4.53,4.53.03,3.55-.43,8.95-2.81,14.58Z"/>
      <path class="cls-1" d="M13.77,32.89c4.98,7.65,16.32,11.67,22.83,4.5.12-.13.25-.27.36-.42.09-.16.18-.32.27-.49,4.48-8.59-3.22-17.84-12.12-19.86-4.83-1.1-9.23-.78-12.24-.27-2.42.41-4.04,2.72-3.59,5.13.56,3,1.79,7.25,4.5,11.41Z"/>
      <path class="cls-1" d="M37.45,59.4c1.15.76,1.91,1.06,3.25,1.06s2.83-.49,3.23-1.06c-.36-13.96.98-24.47,4.99-30.01s.96-8.6-3.25-1.72-8.22,18.35-8.22,31.73Z"/>
    </g>
  </g>
</svg>