<?xml version="1.0" encoding="UTF-8"?>
<svg id="Layer_2" data-name="Layer 2" xmlns="http://www.w3.org/2000/svg" viewBox="0 0 266.18 245.85">
  <defs>
    <style>
      .cls-1 {
        fill: #ccd7f9;
      }

      .cls-1, .cls-2 {
        stroke-width: 0px;
      }

      .cls-2 {
        fill: #6877f3;
      }
    </style>
  </defs>
  <g id="Layer_1-2" data-name="Layer 1">
    <g>
      <path class="cls-1" d="M239.62,80.56c-16.18-6.25-31.84-7.48-47.8-3.63-15.73,3.78-29.06,11.86-41.29,24.11-.19-3.17-.41-5.09-.41-7.01-.03-11.33-.15-22.66.06-33.99.06-3.49-1.25-4.9-4.46-5.95-16.92-5.51-33.75-11.27-50.62-16.91-1.52-.51-3.1-.81-5.32-1.38v5.57c0,40.65.08,81.3-.12,121.95-.02,4.56,1.59,6.37,5.69,7.66,12.84,4.03,25.6,8.35,38.31,12.79,1.78.62,3.67,2.21,4.56,3.87,5.46,10.09,10.63,20.32,15.92,30.5.52.99,1.13,1.94,2.56,4.36-6.99-2.21-12.58-3.93-18.15-5.75-19.92-6.51-39.8-13.12-59.77-19.48-1.76-.56-4.25-.1-5.98.75-16.29,7.96-32.48,16.12-48.72,24.2-12.94,6.44-23.98-.44-23.98-14.94C.09,153.96.18,100.65,0,47.34c-.03-8.42,3.51-13.83,10.78-17.44C28.97,20.87,47.13,11.78,65.25,2.63c5.5-2.78,10.83-3.19,16.81-1.14,25.31,8.67,50.77,16.95,76.1,25.58,4.1,1.4,7.47,1.21,11.31-.8,15.33-8.03,31.06-15.33,46.13-23.8,12.63-7.1,24.95,2.2,24.29,14.65-1.02,19.27-.27,38.64-.27,57.96,0,1.48,0,2.95,0,5.48Z"/>
      <path class="cls-2" d="M153.87,152.96c.08-29.27,22.68-53.64,51.55-55.49,30.22-1.94,56.47,18.8,60.28,47.93,1.8,13.78-1.69,26.8-7.32,39.25-9.35,20.66-22.54,38.81-37.49,55.71-5.78,6.54-14.51,7.45-19.79,1.65-19.28-21.18-36.31-43.86-44.72-71.83-.95-3.18-1.62-6.46-2.13-9.74-.38-2.45-.28-4.98-.39-7.47ZM209.87,172.21c10.26.05,18.71-8.28,18.85-18.59.14-10.04-8.53-18.79-18.68-18.86-10.08-.07-18.87,8.64-18.85,18.69.02,10.27,8.43,18.71,18.68,18.76Z"/>
    </g>
  </g>
</svg>