<?xml version="1.0" encoding="UTF-8"?>
<svg id="Layer_2" data-name="Layer 2" xmlns="http://www.w3.org/2000/svg" viewBox="0 0 269.44 309.85">
  <defs>
    <style>
      .cls-1 {
        fill: #ccd7f9;
      }

      .cls-1, .cls-2 {
        stroke-width: 0px;
      }

      .cls-2 {
        fill: #6877f3;
      }
    </style>
  </defs>
  <g id="Layer_1-2" data-name="Layer 1">
    <g>
      <path class="cls-1" d="M261.19,108.93c-5.42-5.63-13.2-8.97-22.31-8.98-7.19,0-14.39-.01-21.58-.01-2.54,3.54-5.11,7.07-7.67,10.61-5.48,7.58-10.95,15.17-16.47,22.72-3.16,4.31-8.25,4.81-11.93,1.06-4.34-4.42-8.58-8.95-12.76-13.52-3.16-3.46-3.06-7.33.07-10.33,2.9-2.79,6.83-2.64,10.14.54,2.48,2.38,4.82,4.91,7.57,7.73,4.71-6.45,9.24-12.67,13.73-18.81-24.66-.02-49.33-.02-73.99-.02-31.71,0-63.42.01-95.13.03C12.8,99.96,0,112.81,0,130.77,0,180.26,0,229.76,0,279.25c0,17.87,12.62,30.59,30.41,30.6,34.83.01,69.67,0,104.5,0s69.34.01,104.01,0c17.92-.01,30.51-12.55,30.51-30.41.01-49.66.01-99.32,0-148.99,0-8.65-3.04-16.13-8.24-21.52ZM162.2,206.8c1.79-1.25,4.29-2.03,6.47-2.05,17.34-.17,34.68-.16,52.02-.07,6.46.04,11.37,4.71,11.65,10.69.29,5.86-4.81,11.4-11.36,11.62-8.83.28-17.67.07-26.51.07v.02c-8.5,0-17.01.16-25.51-.05-5.69-.15-9.76-3.43-11.12-8.43-1.34-4.92.34-8.99,4.36-11.8ZM232.34,261.41c-.43,6.15-5.69,10.51-12.87,10.55-8.31.05-16.63.01-24.95.01s-16.3.04-24.45-.01c-7.21-.04-12.31-4.39-12.68-10.69-.35-5.92,4.29-11.68,11.08-11.85,17.45-.45,34.92-.45,52.38-.08,6.95.15,11.91,6.1,11.49,12.07Z"/>
      <path class="cls-2" d="M85.01,274.36c-13.65,0-27.3.05-40.95-.02-9.71-.05-12.51-3.36-11.25-12.99,2.2-16.78,16.24-30.83,33.91-31.98,13.39-.87,26.99-.59,40.35.68,16.18,1.53,30.5,18.94,30.51,35.23,0,5.83-3.25,8.9-10.12,9.03-8.99.16-17.98.05-26.97.05-5.16,0-10.32,0-15.48,0Z"/>
      <path class="cls-2" d="M111.04,184.02c0,14.55-11.38,25.99-25.89,26.04-14.73.05-26.56-11.56-26.56-26.05,0-14.48,11.86-26.1,26.58-26.05,14.51.06,25.87,11.5,25.87,26.06Z"/>
      <path class="cls-2" d="M253.46,57.74c-18.26-7.81-36.54-15.59-54.93-23.09-2.35-.96-5.63-.77-8.13.01-4.89,1.55-9.53,3.88-14.27,5.9-14.12,6-28.3,11.87-42.32,18.09-7.02,3.11-10.49,9.05-10.34,16.67.16,8.37.98,16.58,2.52,24.6,2.74,14.23,7.74,27.85,15.25,40.74,10.88,18.68,26.1,32.83,45.82,41.93,4.93,2.28,10.16,2.52,14.9-.1,6.88-3.8,13.98-7.49,20.08-12.36,21.23-16.95,33.25-38.36,39.15-61.2,2.25-8.72,3.6-17.65,4.24-26.62.04-15.27-2.99-20.72-11.97-24.57ZM209.63,110.55c-5.48,7.58-10.95,15.17-16.47,22.72-3.16,4.31-8.25,4.81-11.93,1.06-4.34-4.42-8.58-8.95-12.76-13.52-3.16-3.46-3.06-7.33.07-10.33,2.9-2.79,6.83-2.64,10.14.54,2.48,2.38,4.82,4.91,7.57,7.73,4.71-6.45,9.24-12.67,13.73-18.81,2.17-2.98,4.33-5.94,6.49-8.9,1.68-2.29,3.33-4.6,5.07-6.84,2.84-3.7,6.4-4.31,9.83-1.75,3.49,2.61,4.04,6.06,1.33,9.93-1.78,2.53-3.58,5.05-5.4,7.56-2.54,3.54-5.11,7.07-7.67,10.61Z"/>
      <path class="cls-1" d="M95.47,22.46c-1.07,15.09-6.53,29.94-20.17,40.83-2.84,2.26-6.14,3.98-9.34,5.75-2.2,1.22-4.64,1.11-6.93.05-9.17-4.23-16.24-10.81-21.3-19.49-5.46-9.37-8.06-19.57-8.26-30.38-.07-3.54,1.54-6.3,4.81-7.75,6.52-2.89,13.11-5.62,19.68-8.41,2.2-.94,4.36-2.02,6.63-2.74,1.16-.36,2.69-.45,3.78,0,8.55,3.49,17.05,7.1,25.54,10.74,4.18,1.79,5.58,4.32,5.57,11.42Z"/>
    </g>
  </g>
</svg>