<?xml version="1.0" encoding="UTF-8"?>
<svg id="Layer_2" data-name="Layer 2" xmlns="http://www.w3.org/2000/svg" viewBox="0 0 106 94.03">
  <defs>
    <style>
      .cls-1 {
        fill: #ced7fb;
      }

      .cls-1, .cls-2 {
        stroke-width: 0px;
      }

      .cls-2 {
        fill: #6b76f7;
      }
    </style>
  </defs>
  <g id="Layer_1-2" data-name="Layer 1">
    <g>
      <path class="cls-2" d="M75.46,30.3c-4.25,4.16-8.09,7.91-12.08,11.81-.33-.29-.83-.69-1.28-1.15-4.2-4.25-8.48-8.44-12.57-12.8-3.2-3.41-8.29-3.91-11.81,0-3.8,4.22-8,8.09-12.01,12.12-1.67,1.68-2.35,3.7-1.95,6.05.42,2.44,1.65,4.37,4.07,5.06,2.57.73,5.16.64,7.23-1.44,2.35-2.35,4.69-4.71,6.95-7.15,1.08-1.17,1.79-1.33,3-.05,3.9,4.13,7.9,8.18,11.96,12.16,1.29,1.27,2.78,2.61,4.43,3.18,2.63.9,5.18.34,7.3-1.82,4.8-4.91,9.74-9.7,14.53-14.61,1.26-1.29,2.12-1.44,3.36-.01,1.5,1.72,3.2,3.27,4.84,4.87,1.66,1.62,3.6,1.96,5.71,1.08,2.07-.86,2.99-2.53,2.99-4.74,0-7.39.03-14.77-.01-22.16-.02-3.28-1.95-5.31-5.22-5.34-7.46-.07-14.92-.02-22.38-.01-2.3,0-4.07.98-4.84,3.18-.75,2.11-.28,4.07,1.4,5.67,2.08,1.97,4.14,3.97,6.37,6.11Z"/>
      <path class="cls-1" d="M106,87.59h0c0,3.55-2.88,6.43-6.43,6.43H18.03c-9.96,0-18.03-8.07-18.03-18.03V6.43C0,2.88,2.88,0,6.43,0h0c3.55,0,6.43,2.88,6.43,6.43v68.3c0,3.55,2.88,6.43,6.43,6.43h80.28c3.55,0,6.43,2.88,6.43,6.43Z"/>
    </g>
  </g>
</svg>