<?xml version="1.0" encoding="UTF-8"?>
<svg id="Layer_2" data-name="Layer 2" xmlns="http://www.w3.org/2000/svg" viewBox="0 0 83.15 96.28">
  <defs>
    <style>
      .cls-1 {
        fill: #ced7fb;
      }

      .cls-1, .cls-2 {
        stroke-width: 0px;
      }

      .cls-2 {
        fill: #6b76f7;
      }
    </style>
  </defs>
  <g id="Layer_1-2" data-name="Layer 1">
    <g>
      <path class="cls-1" d="M83.15,76.98v.14c0,2.31-1.38,4.41-3.5,5.32l-26.49,11.44c-7.39,3.2-15.78,3.2-23.18,0l-26.49-11.44c-2.12-.92-3.5-3.01-3.5-5.32v-.14c0-2.2,1.31-4.19,3.32-5.06l28.27-12.21c6.37-2.75,13.59-2.75,19.96,0l28.27,12.21c2.02.87,3.32,2.86,3.32,5.06Z"/>
      <path class="cls-1" d="M46.68,10.6c-3.01,2.94-5.73,5.6-8.55,8.36-.23-.21-.59-.49-.91-.81-2.98-3.01-6-5.98-8.9-9.06-2.27-2.41-5.87-2.77-8.36,0-2.69,2.99-5.66,5.72-8.5,8.58-1.18,1.19-1.67,2.62-1.38,4.28.3,1.72,1.17,3.1,2.88,3.58,1.82.52,3.65.45,5.12-1.02,1.66-1.67,3.32-3.33,4.92-5.06.76-.83,1.27-.94,2.12-.04,2.76,2.92,5.59,5.79,8.47,8.61.92.9,1.97,1.85,3.14,2.25,1.86.64,3.67.24,5.17-1.29,3.4-3.48,6.89-6.86,10.29-10.34.89-.92,1.5-1.02,2.38,0,1.06,1.22,2.27,2.31,3.43,3.45,1.17,1.15,2.55,1.39,4.04.76,1.46-.61,2.11-1.79,2.11-3.35,0-5.23.02-10.46,0-15.69-.01-2.32-1.38-3.76-3.69-3.78-5.28-.05-10.56-.02-15.84,0-1.62,0-2.88.7-3.43,2.25-.53,1.5-.2,2.88.99,4.01,1.47,1.4,2.93,2.81,4.51,4.32Z"/>
      <path class="cls-2" d="M37.64,61.73c-7.16,0-12.96-5.86-12.86-13.04s5.75-12.58,12.68-12.68c7.19-.1,13.04,5.7,13.04,12.86,0,1.37-.21,2.69-.61,3.92l11.79,11.79c.33.33.51.77.51,1.24v5.85c0,.97-.79,1.75-1.75,1.75h-5.85c-.97,0-1.75-.79-1.75-1.75v-2.92h-2.92c-.97,0-1.75-.79-1.75-1.75v-2.92h-2.92c-.47,0-.91-.18-1.24-.51l-2.43-2.43c-1.23.39-2.56.61-3.92.61ZM34.7,43.03c-1.61,0-2.92,1.31-2.92,2.92s1.31,2.92,2.92,2.92,2.92-1.31,2.92-2.92-1.31-2.92-2.92-2.92Z"/>
    </g>
  </g>
</svg>