<?xml version="1.0" encoding="UTF-8"?>
<svg id="Layer_2" data-name="Layer 2" xmlns="http://www.w3.org/2000/svg" viewBox="0 0 244.89 313.24">
  <defs>
    <style>
      .cls-1 {
        fill: #ccd7f9;
      }

      .cls-1, .cls-2 {
        stroke-width: 0px;
      }

      .cls-2 {
        fill: #6877f3;
      }
    </style>
  </defs>
  <g id="Layer_1-2" data-name="Layer 1">
    <g>
      <path class="cls-1" d="M238.01,130.02c-4.3-2.18-8.57-4.42-12.82-6.7-6.2-3.32-9.01-14.5-5.14-20.44,2.37-3.62,4.88-7.14,7.23-10.77,3.99-6.16,3.16-13.1-2.12-18.11-2.65-2.52-5.25-5.11-8.01-7.51-4.95-4.32-10.37-4.74-16.01-1.24-3.96,2.46-7.88,4.99-11.66,7.71-2.81,2.04-5.5,2.71-8.78,1.15-1.77-.84-3.97-.8-5.69-1.71-2.02-1.06-4.3-2.36-5.44-4.19-2.26-3.66-3.85-7.73-5.66-11.66-3.51-7.57-8.72-10.27-16.88-8.48-3.56.79-7.11,1.72-10.58,2.86-6.46,2.13-9.77,6.63-9.67,13.48.08,4.98.99,9.96.85,14.92-.06,2.32-1.39,4.82-2.74,6.84-4.78,7.17-11.5,9.22-19.73,6.95-1.58-.44-3.31-.3-4.97-.42-8.56-.62-13.22,2.67-15.35,10.87-.92,3.54-1.9,7.08-2.63,10.66-.1.49-.18.98-.24,1.45,5.93-3.44,12.65-5.68,19.7-6.36,16.01-1.54,31.92,5.24,41.71,17.09,1.33-10.25,9.9-17.91,20.5-17.82,11.23.11,20.64,9.69,20.49,20.88-.15,10.96-9.59,20.21-20.65,20.24-4.1.01-7.9-1.15-11.08-3.16.63,3.23,1,6.54,1.26,9.79.56,7.03.19,14.14.11,21.22-.03,2.58.77,3.63,3.59,4,11.86,1.56,20.63,11.4,20.68,23.35.01,1.94.02,3.89.02,5.83.6-.1,1.21-.23,1.83-.4,3.05-.81,6.12-1.57,9.16-2.41,6.99-1.91,10.98-6.97,10.84-14.23-.09-4.65-.5-9.32-1.1-13.93-.43-3.29.13-5.91,3.03-7.8.55-.36,1.08-.82,1.46-1.35,3.65-5.01,8.19-7.68,14.59-5.25,4.45,0,8.94.19,13.41-.05,4.62-.24,7.95-2.91,9.35-7.15,1.66-5.03,2.88-10.25,3.8-15.47,1-5.73-1.4-10.02-6.66-12.68Z"/>
      <g>
        <path class="cls-2" d="M106.02,235.37c-6.48.04-11.51,5.22-11.46,11.77.06,6.41,5.18,11.51,11.48,11.43,6.41-.08,11.78-5.4,11.75-11.64-.02-6.32-5.41-11.61-11.77-11.56ZM106.02,235.37c-6.48.04-11.51,5.22-11.46,11.77.06,6.41,5.18,11.51,11.48,11.43,6.41-.08,11.78-5.4,11.75-11.64-.02-6.32-5.41-11.61-11.77-11.56ZM106.02,235.37c-6.48.04-11.51,5.22-11.46,11.77.06,6.41,5.18,11.51,11.48,11.43,6.41-.08,11.78-5.4,11.75-11.64-.02-6.32-5.41-11.61-11.77-11.56ZM106.02,235.37c-6.48.04-11.51,5.22-11.46,11.77.06,6.41,5.18,11.51,11.48,11.43,6.41-.08,11.78-5.4,11.75-11.64-.02-6.32-5.41-11.61-11.77-11.56ZM106.02,235.37c-6.48.04-11.51,5.22-11.46,11.77.06,6.41,5.18,11.51,11.48,11.43,6.41-.08,11.78-5.4,11.75-11.64-.02-6.32-5.41-11.61-11.77-11.56Z"/>
        <path class="cls-2" d="M178.3,210.74c0-1.94-.01-3.89-.02-5.83-.05-11.95-8.82-21.79-20.68-23.35-2.82-.37-3.62-1.42-3.59-4,.08-7.08.45-14.19-.11-21.22-.26-3.25-.63-6.56-1.26-9.79-.51-2.65-1.18-5.26-2.09-7.73-1.68-4.56-4.13-8.73-7.17-12.41-9.79-11.85-25.7-18.63-41.71-17.09-7.05.68-13.77,2.92-19.7,6.36-11.95,6.91-20.72,18.67-22.6,32.32-1.33,9.71-.82,19.69-.96,29.55-.03,2.6-.66,3.64-3.48,4.03-12.1,1.69-20.54,11.64-20.54,23.79-.01,28.05-.01,56.09,0,84.14,0,13.5,10.27,23.71,23.86,23.72,16.02.02,32.05.01,48.08.01h48.08c13.31-.01,23.78-10.02,23.86-23.39.15-26.38.13-52.74.03-79.11ZM106.03,133.19c12.44-.16,23.39,9.71,24.27,22.47.52,7.56.14,15.18.27,22.78.05,2.67-1.43,3-3.57,2.98-6.93-.06-13.86-.02-20.8-.02-2.35,0-4.69-.01-7.04-.01-4.45-.03-8.9-.04-13.35.06-2.79.06-3.78-.92-3.7-3.7.2-7.19-.02-14.4.32-21.58.51-10.8,7.82-19.5,17.62-22.15,1.91-.52,3.91-.8,5.98-.83ZM147.91,246.58c-2.18,1.1-4.27,2.41-6.53,3.3-2.53,1-3.05,3.01-3.93,5.28-1.36,3.52-.37,6.09,1.75,8.73,1.18,1.46,2.13,3.1,3.11,4.71,1.89,3.12,1.55,6.44-.99,9.04-1.65,1.67-3.38,3.27-5.15,4.81-2.69,2.32-5.2,2.58-8.3.91-1.15-.63-2.29-1.32-3.31-2.14-3.59-2.86-7.3-4.97-11.9-2.29-1.19.69-2.58,1.41-3.25,2.51-1.37,2.22-2.28,4.73-3.46,7.08-1.95,3.89-5.17,5.33-9.34,4.26-1.09-.28-2.19-.55-3.28-.85-6.99-1.9-8.83-4.44-7.78-11.6.7-4.72.66-8.99-3.97-11.77-1.12-.67-2.38-1.4-3.61-1.5-2.14-.17-4.32.07-6.47.25-6.71.56-8.38-.61-10.17-7.23-2.49-9.28-2.13-10.54,6.7-14.61,4.02-1.85,6.5-4.14,7.21-8.63.3-1.87.22-3.19-.87-4.64-1.54-2.02-3.02-4.08-4.4-6.21-1.93-2.99-1.99-6.48.29-8.91,7.16-7.61,8.83-10.82,18.81-3.22,3.24,2.46,6.17,2.76,9.83,1.43,1.88-.69,3.3-1.33,4.11-3.3,1.03-2.51,2.36-4.92,3.64-7.32,1.56-2.93,3.74-4.12,6.96-3.52,2.94.56,5.88,1.29,8.71,2.26,2.84.98,4.41,3.22,4.36,6.26-.05,3-.5,6-.56,9-.03,1.12.18,2.52.85,3.34,2.93,3.56,6.25,6.48,11.45,4.63.5-.18,1.12-.03.91-.03,6.54-.5,9.06.4,10.28,3.88.99,2.81,1.68,5.77,2.2,8.71.59,3.35-.84,5.84-3.9,7.38Z"/>
      </g>
      <path class="cls-1" d="M91.81,38.2c-.52-2.94-1.21-5.9-2.2-8.71-1.22-3.48-3.74-4.38-10.28-3.88.21,0-.41-.15-.91.03-5.2,1.85-8.52-1.07-11.45-4.63-.67-.82-.88-2.22-.85-3.34.06-3,.51-6,.56-9,.05-3.04-1.52-5.28-4.36-6.26-2.83-.97-5.77-1.7-8.71-2.26-3.22-.6-5.4.59-6.96,3.52-1.28,2.4-2.61,4.81-3.64,7.32-.81,1.97-2.23,2.61-4.11,3.3-3.66,1.33-6.59,1.03-9.83-1.43-9.98-7.6-11.65-4.39-18.81,3.22-2.28,2.43-2.22,5.92-.29,8.91,1.38,2.13,2.86,4.19,4.4,6.21,1.09,1.45,1.17,2.77.87,4.64-.71,4.49-3.19,6.78-7.21,8.63C-.8,48.54-1.16,49.8,1.33,59.08c1.79,6.62,3.46,7.79,10.17,7.23,2.15-.18,4.33-.42,6.47-.25,1.23.1,2.49.83,3.61,1.5,4.63,2.78,4.67,7.05,3.97,11.77-1.05,7.16.79,9.7,7.78,11.6,1.09.3,2.19.57,3.28.85,4.17,1.07,7.39-.37,9.34-4.26,1.18-2.35,2.09-4.86,3.46-7.08.67-1.1,2.06-1.82,3.25-2.51,4.6-2.68,8.31-.57,11.9,2.29,1.02.82,2.16,1.51,3.31,2.14,3.1,1.67,5.61,1.41,8.3-.91,1.77-1.54,3.5-3.14,5.15-4.81,2.54-2.6,2.88-5.92.99-9.04-.98-1.61-1.93-3.25-3.11-4.71-2.12-2.64-3.11-5.21-1.75-8.73.88-2.27,1.4-4.28,3.93-5.28,2.26-.89,4.35-2.2,6.53-3.3,3.06-1.54,4.49-4.03,3.9-7.38ZM46.04,57.57c-6.3.08-11.42-5.02-11.48-11.43-.05-6.55,4.98-11.73,11.46-11.77,6.36-.05,11.75,5.24,11.77,11.56.03,6.24-5.34,11.56-11.75,11.64Z"/>
    </g>
  </g>
</svg>