<?xml version="1.0" encoding="UTF-8"?>
<svg id="Layer_2" data-name="Layer 2" xmlns="http://www.w3.org/2000/svg" viewBox="0 0 254.63 238.92">
  <defs>
    <style>
      .cls-1 {
        fill: #ccd7f9;
      }

      .cls-1, .cls-2 {
        stroke-width: 0px;
      }

      .cls-2 {
        fill: #6877f3;
      }
    </style>
  </defs>
  <g id="Layer_1-2" data-name="Layer 1">
    <g>
      <path class="cls-2" d="M127.22,119.46c-.38,4.4-3.22,6.71-7.36,7.09-4.81.44-9.61.93-14.42,1.34-18.41,1.59-36.81,3.25-55.23,4.71-7.72.61-13.2,3.94-16.1,11.33-1.64,4.18-3.6,8.24-5.42,12.35-9.12,20.54-18.42,41.01-27.31,61.65-4.64,10.77,2.93,21.73,14.58,20.95,4.44-.3,8.91-2.42,13.07-4.33,71.83-32.98,143.63-66.04,215.41-99.13,6.63-3.05,10.3-8.22,10.18-15.95h-127.41Z"/>
      <path class="cls-1" d="M127.22,119.46c-.38-4.4-3.22-6.71-7.36-7.09-4.81-.44-9.61-.93-14.42-1.34-18.41-1.59-36.81-3.25-55.23-4.71-7.72-.61-13.2-3.94-16.1-11.33-1.64-4.18-3.6-8.24-5.42-12.35C19.57,62.1,10.28,41.63,1.39,20.99-3.26,10.21,4.31-.74,15.96.04c4.44.3,8.91,2.42,13.07,4.33,71.83,32.98,143.63,66.04,215.41,99.13,6.63,3.05,10.3,8.22,10.18,15.95h-127.41Z"/>
    </g>
  </g>
</svg>