<?xml version="1.0" encoding="UTF-8"?>
<svg id="Layer_2" data-name="Layer 2" xmlns="http://www.w3.org/2000/svg" viewBox="0 0 104.8 98.4">
  <defs>
    <style>
      .cls-1 {
        fill: #ced7fb;
      }

      .cls-1, .cls-2 {
        stroke-width: 0px;
      }

      .cls-2 {
        fill: #6b76f7;
      }
    </style>
  </defs>
  <g id="Layer_1-2" data-name="Layer 1">
    <g>
      <path class="cls-1" d="M70.08,79.32c-2.66,1.38-5.32,1.82-8.03,2.24-2.99.46-4.95-1.05-6.79-3.04-1.26-1.36-2.56-2.69-3.86-4.01-1.73-1.76-4.19-2.06-5.93-.75-1.78,1.33-2.1,3.28-.93,5.63.9,1.81.75,2.02-1.28,2.1-6,.22-11.11-1.87-15.54-5.82-.45-.4-1.07-.6-1.81-1-8.4,7.89-16.84,15.82-25.29,23.75-.18-.12-.35-.24-.53-.36-.03-.68-.1-1.36-.1-2.04C0,76.03-.02,56.06.06,36.08c0-1.02.59-2.24,1.29-3.04,5.09-5.87,10.24-11.7,15.47-17.45,2.31-2.54,4.59-5.24,7.35-7.22,4.36-3.12,9.61-3.16,14.78-2.89.35.02.68.3,1.33.61-1.32,1.56-2.51,3.03-3.76,4.44-4.32,4.88-8.69,9.71-12.98,14.61-1.46,1.67-3.04,3.35-4.03,5.3-2.39,4.67-.57,9.86,3.48,13.25,3.65,3.05,7.71,5.1,12.32,5.48,7.18.58,13.65-1.43,18.81-6.78.4-.42.82-.82,1.22-1.25.9-.98,1.67-1.09,2.72-.02,7.59,7.64,15.21,15.24,22.88,22.81,1.71,1.69,1.75,3.57.55,5.61-.93,1.57-2.18,3.38-3.73,4.04-1.99.85-2.67-1.81-4.01-2.81-1.02-.76-1.82-1.81-2.81-2.64-1.63-1.36-3.93-1.33-5.31-.03-1.58,1.5-1.98,3.83-.67,5.5,1.5,1.91,3.24,3.64,5.12,5.73Z"/>
      <path class="cls-2" d="M104.77,0c0,1.25,0,1.95,0,2.65,0,15.97-.01,31.94.03,47.91,0,1.41-.37,2.35-1.53,3.23-3.16,2.41-6.24,4.95-9.29,7.51-1.25,1.05-2.23,1.21-3.48-.04-5.9-5.89-11.87-11.72-17.81-17.57-3.62-3.57-7.24-7.14-10.86-10.72-.84-.83-1.57-1.78-2.51-2.47-1.77-1.32-4.03-1.1-5.64.45-2.14,2.06-4.14,4.27-6.39,6.2-6.12,5.25-14.52,4.74-20.01-1.13-.39-.41-.36-1.79.03-2.27,3.12-3.81,6.33-7.55,9.59-11.24,3.8-4.29,7.6-8.58,11.54-12.74,2.47-2.6,5.56-4.07,9.27-4.01,3.17.05,6.35.17,9.5-.03,5.71-.36,10.85.98,15.35,4.54,1.33,1.05,2.42.97,3.83.14,5.27-3.1,10.59-6.11,15.9-9.14.64-.37,1.33-.68,2.47-1.25Z"/>
    </g>
  </g>
</svg>