<?xml version="1.0" encoding="UTF-8"?>
<svg id="Layer_2" data-name="Layer 2" xmlns="http://www.w3.org/2000/svg" viewBox="0 0 241.41 310.2">
  <defs>
    <style>
      .cls-1 {
        fill: #ccd7f9;
      }

      .cls-1, .cls-2 {
        stroke-width: 0px;
      }

      .cls-2 {
        fill: #6877f3;
      }
    </style>
  </defs>
  <g id="Layer_1-2" data-name="Layer 1">
    <g>
      <path class="cls-2" d="M241.41,113.85c-1.32,18.56-8.04,36.83-24.81,50.22-3.49,2.79-7.55,4.9-11.48,7.07-2.71,1.5-5.7,1.36-8.52.06-11.28-5.2-19.98-13.3-26.2-23.98-6.71-11.52-9.92-24.08-10.16-37.37-.09-4.36,1.9-7.75,5.91-9.53,8.02-3.56,16.13-6.91,24.2-10.35,2.71-1.16,5.36-2.49,8.16-3.37,1.43-.45,3.31-.55,4.65,0,10.52,4.29,20.97,8.74,31.41,13.2,5.14,2.2,6.87,5.32,6.85,14.05Z"/>
      <g>
        <path class="cls-1" d="M100.93,145.26c-17.48,0-34.48-.61-51.42.21-11.58.56-19.95,12-19.31,24.01.59,11.12,10.31,20.55,21.8,20.72,13,.19,26,.05,39.01.05,32,0,64.01-.01,96.01,0,24.58.01,45.74,16.12,51.28,38.98,6.01,24.82-4.67,48.49-27,60.33-2.02,1.07-3.75,3.2-4.95,5.23-8.16,13.8-24.52,19.14-38.95,12.53-13.99-6.41-20.61-22.49-15.42-37.43,6.43-18.5,30.24-25.67,45.81-13.79,1.42,1.09,2.82,2.2,4.15,3.24,7.07-5.44,9.83-15.03,7.04-23.61-2.91-8.96-11.32-15.21-21.19-15.5-5.83-.17-11.67-.04-17.5-.04-38.67,0-77.34.03-116.02-.01-24.45-.02-43.82-13.47-51.37-35.54-11.64-34.04,13.18-69.09,49.22-69.38,14.83-.12,29.67-.08,44.51.03,3.21.02,4.8-.53,4.84-4.33.05-4.92,2.84-8.32,7.63-10.03,4.67-1.66,8.49-.34,11.83,2.96,5.92,5.87,11.86,11.71,17.68,17.68,5.21,5.33,5.09,11.86-.22,17.26-5.61,5.7-11.4,11.23-16.93,17.01-3.58,3.74-7.59,5.42-12.56,3.5-5.04-1.94-7.53-5.78-7.59-11.2,0-.8-.2-1.6-.37-2.89Z"/>
        <path class="cls-2" d="M85.84,295.07c-4.52,0-8.84-.27-13.08.15-1.44.14-2.96,1.84-4,3.17-10.1,12.89-27.92,15.62-41.03,6.21-12.96-9.31-16.6-27.45-8.09-40.4,9.17-13.96,27.24-18.15,41.21-9.28,3.03,1.92,5.53,4.74,8.04,7.38,2.43,2.56,13.33,4.77,16.04,2.73.84-.63,1.22-2.25,1.31-3.46.39-5.17,2.74-8.88,7.71-10.57,4.93-1.67,9.07-.23,12.67,3.48,5.33,5.49,10.87,10.79,16.23,16.26,6.14,6.26,6.14,12.58.02,18.82-5.13,5.23-10.44,10.29-15.49,15.59-3.74,3.92-7.93,6.26-13.33,4.34-5.54-1.97-7.89-6.3-7.84-12.06,0-.49-.15-.98-.37-2.35Z"/>
      </g>
      <g>
        <path class="cls-1" d="M119.61,85.94c-10.94-.09-22.91-5.78-33.25-15.27-7.61-6.98-13.64-15.18-17.68-24.71-.67-1.58-.83-3.95-.14-5.46,6.81-15.07,16.93-27.35,31.92-34.79,18.03-8.95,35.63-7.2,52.18,4.03,10.95,7.43,18.83,17.59,24.56,29.46,1.13,2.33,1.46,4.65.31,7.06-6.94,14.5-16.8,26.34-31.2,33.98-7.28,3.86-15.09,5.74-26.7,5.7ZM123.04,15.49c-15.38.03-27.42,12.25-27.5,27.74-.07,13.65,10.55,27.49,27.61,27.45,17.1-.04,27.73-13.98,27.53-27.96-.22-15.05-12.43-27.25-27.63-27.23Z"/>
        <path class="cls-2" d="M104.99,41.8c5.3,2.14,10.27,1.8,14.45-2.43,4.1-4.15,4.6-9.03,2.4-14.28,5.91-1.49,13.73,2.56,17.26,8.8,4.06,7.18,2.74,16.45-3.19,22.37-5.65,5.64-14.59,6.83-21.68,2.89-6.41-3.57-10.69-11.47-9.24-17.35Z"/>
      </g>
    </g>
  </g>
</svg>